<svg width="28" height="28" viewBox="0 0 28 28" fill="none" xmlns="http://www.w3.org/2000/svg">
<path d="M19.8917 23.66C18.7484 24.7683 17.5 24.5933 16.2984 24.0683C15.0267 23.5317 13.86 23.5083 12.5184 24.0683C10.8384 24.7917 9.9517 24.5817 8.94836 23.66C3.25503 17.7917 4.09503 8.855 10.5584 8.52833C12.1334 8.61 13.23 9.39167 14.1517 9.46167C15.5284 9.18167 16.8467 8.37667 18.3167 8.48167C20.0784 8.62167 21.4084 9.32167 22.2834 10.5817C18.6434 12.7633 19.5067 17.5583 22.8434 18.9C22.1784 20.65 21.315 22.3883 19.88 23.6717L19.8917 23.66ZM14.035 8.45833C13.86 5.85667 15.9717 3.71 18.3984 3.5C18.7367 6.51 15.6684 8.75 14.035 8.45833Z" fill="#5589FE"/>
</svg>
