<svg width="30" height="28" viewBox="0 0 30 28" fill="none" xmlns="http://www.w3.org/2000/svg">
<path d="M10.0874 14.6335L20.5368 23.926C20.7112 24.0811 20.9428 24.1677 21.1837 24.1677C21.4246 24.1677 21.6562 24.0811 21.8306 23.926L21.8418 23.9155C21.9266 23.8403 21.9942 23.7498 22.0403 23.6494C22.0865 23.5491 22.1103 23.4411 22.1103 23.3319C22.1103 23.2227 22.0865 23.1146 22.0403 23.0143C21.9942 22.914 21.9266 22.8235 21.8418 22.7482L12.0018 13.9982L21.8418 5.25175C21.9266 5.17654 21.9942 5.08602 22.0403 4.98569C22.0865 4.88536 22.1103 4.77731 22.1103 4.66812C22.1103 4.55893 22.0865 4.45089 22.0403 4.35055C21.9942 4.25022 21.9266 4.1597 21.8418 4.0845L21.8306 4.07399C21.6562 3.91887 21.4246 3.83233 21.1837 3.83233C20.9428 3.83233 20.7112 3.91887 20.5368 4.07399L10.0874 13.3665C9.99555 13.4482 9.92239 13.5465 9.8724 13.6554C9.82241 13.7643 9.79663 13.8815 9.79663 14C9.79663 14.1185 9.82241 14.2357 9.8724 14.3446C9.92239 14.4535 9.99555 14.5518 10.0874 14.6335Z" fill="white"/>
</svg>
