<svg width="50" height="47" viewBox="0 0 40 37" fill="none" xmlns="http://www.w3.org/2000/svg">
<g clip-path="url(#clip0_1225_1185)">
<path d="M13.6498 23.8535C5.74734 21.367 35.0243 31.0513 37.4165 23.9249C38.0473 22.0332 26.9434 19.3921 27.3838 15.1686C27.7765 11.3615 37.5593 10.6953 37.6069 7.09048C37.6426 4.1638 28.5739 2.9265 27.6218 2.78373C20.7072 1.79627 15.2683 2.78373 13.2451 3.55704C9.76995 4.88952 7.04457 6.74547 4.91425 9.63646C1.76043 13.8956 1.74853 19.8085 3.73603 24.3175C5.87825 29.1477 9.93657 31.777 14.1139 33.1214C23.4445 36.1432 43.5218 33.4783 33.739 34.4538" stroke="#444E9D" stroke-width="4" stroke-miterlimit="10"/>
<path d="M22.1836 10.5652C24.4806 10.5652 24.4806 6.99609 22.1836 6.99609C19.8867 6.99609 19.8867 10.5652 22.1836 10.5652Z" fill="#444E9D"/>
</g>
<defs>
<clipPath id="clip0_1225_1185">
<rect width="40" height="37" fill="white"/>
</clipPath>
</defs>
</svg>
