<svg width="65" height="61" viewBox="0 0 65 61" fill="none" xmlns="http://www.w3.org/2000/svg">
<path d="M22.1823 39.3264C9.34089 35.2271 56.916 51.193 60.8033 39.4441C61.8282 36.3255 43.7845 31.9711 44.5001 25.0081C45.1383 18.7316 61.0353 17.6332 61.1127 11.6901C61.1707 6.86501 46.434 4.82513 44.8869 4.58976C33.6506 2.96179 24.8125 4.58976 21.5248 5.86468C15.8776 8.06147 11.4489 11.1213 7.98713 15.8875C2.86217 22.9094 2.84283 32.6576 6.07252 40.0914C9.55363 48.0547 16.1484 52.3894 22.9365 54.6058C38.0987 59.5878 70.7244 55.1943 54.8274 56.8026" stroke="white" stroke-width="5" stroke-miterlimit="10"/>
<path d="M38.5 18C43.1667 18 43.1667 11 38.5 11C33.8333 11 33.8333 18 38.5 18Z" fill="white"/>
</svg>
