<svg width="20" height="19" viewBox="0 0 20 19" fill="none" xmlns="http://www.w3.org/2000/svg">
<path d="M14.293 12.255C14.1013 12.0597 13.8391 11.9497 13.5654 11.9497H13.2768C13.1949 11.9497 13.1163 11.9176 13.0578 11.8602V11.8602C12.9406 11.7453 12.9326 11.5599 13.0335 11.4304C14.0004 10.1894 14.5287 8.65003 14.5276 7.06118C14.5276 5.66461 14.1202 4.2994 13.3569 3.1382C12.5937 1.977 11.5088 1.07195 10.2395 0.537503C8.97019 0.0030595 7.5735 -0.136775 6.22602 0.135682C4.87854 0.408139 3.64081 1.08065 2.66933 2.06817C1.69786 3.0557 1.03627 4.31388 0.768243 5.68361C0.500213 7.05335 0.637775 8.47311 1.16353 9.76337C1.68929 11.0536 2.57964 12.1564 3.72197 12.9323C4.86431 13.7082 6.20733 14.1224 7.5812 14.1224C9.19677 14.1224 10.6898 13.5573 11.8746 12.607C12.0038 12.5034 12.1917 12.5116 12.3056 12.6317V12.6317C12.36 12.689 12.3903 12.765 12.3903 12.8441V13.1442C12.3903 13.4229 12.5 13.6905 12.6957 13.889L16.9236 18.1782C17.369 18.63 18.098 18.6297 18.5429 18.1774V18.1774C18.9776 17.7355 18.9779 17.0268 18.5437 16.5845L14.293 12.255ZM7.5812 11.9497C4.92018 11.9497 2.77213 9.76615 2.77213 7.06118C2.77213 4.35621 4.92018 2.17267 7.5812 2.17267C10.2422 2.17267 12.3903 4.35621 12.3903 7.06118C12.3903 9.76615 10.2422 11.9497 7.5812 11.9497Z" fill="black"/>
</svg>
