<svg width="139" height="86" viewBox="0 0 139 86" fill="none" xmlns="http://www.w3.org/2000/svg">
<g clip-path="url(#clip0_2838_2)">
<path d="M139 86.0003H0C1.52307 82.1262 4.33578 78.8403 8.30075 77.8655C14.101 76.4412 20.2392 80.357 26.0265 78.8849C29.3145 78.0493 31.903 75.6134 34.623 73.5916C44.8845 65.9612 58.9468 63.7059 71.0894 67.7447C77.4364 69.8547 83.2203 73.5447 89.7224 75.1141C98.1299 77.1434 106.922 75.4605 115.568 75.1832C123.988 74.9124 136.054 78.3347 139 86.0003Z" fill="#F3F5FD"/>
<path d="M82.6512 63.3828H65.0781V83.222H82.6512V63.3828Z" fill="#DEE8F5"/>
<path d="M116.635 0H31.0948C29.2216 0 27.7031 1.51447 27.7031 3.38266V69.7032C27.7031 71.5714 29.2216 73.0859 31.0948 73.0859H116.635C118.508 73.0859 120.027 71.5714 120.027 69.7032V3.38266C120.027 1.51447 118.508 0 116.635 0Z" fill="#DEE8F5"/>
<path d="M116.424 2.30664H31.3052C30.477 2.30664 29.8057 2.97621 29.8057 3.80218V61.8192C29.8057 62.6452 30.477 63.3147 31.3052 63.3147H116.424C117.252 63.3147 117.924 62.6452 117.924 61.8192V3.80218C117.924 2.97621 117.252 2.30664 116.424 2.30664Z" fill="white"/>
<path d="M88.1998 81.4434H59.5295C58.2679 81.4434 57.2451 82.4634 57.2451 83.7217C57.2451 84.98 58.2679 86.0001 59.5295 86.0001H88.1998C89.4615 86.0001 90.4842 84.98 90.4842 83.7217C90.4842 82.4634 89.4615 81.4434 88.1998 81.4434Z" fill="#DEE8F5"/>
<path d="M92.134 14.2988H55.5967V41.7584H92.134V14.2988Z" fill="#DEE8F5"/>
<path d="M81.7427 47.541H65.9883V51.5073H81.7427V47.541Z" fill="#DEE8F5"/>
<path d="M74.3753 21.8203H73.3555V34.236H74.3753V21.8203Z" fill="white"/>
<path d="M80.0893 27.5195H67.6406V28.5365H80.0893V27.5195Z" fill="white"/>
<path d="M13.5596 35.1124C13.5596 35.1124 14.5513 34.6876 14.5513 32.0893L16.5447 31.8867C16.5447 31.8867 16.1338 34.1827 17.0667 34.9983L13.5596 35.1124Z" fill="#E98862"/>
<path d="M13.5194 30.997C13.5911 31.7912 13.9585 32.5678 14.6304 32.8773C15.3607 33.2379 16.1684 33.4148 16.9831 33.3925C19.147 33.3925 19.1226 28.4831 18.1799 27.4522C17.2371 26.4213 14.1928 26.7766 13.6983 28.3305C13.4426 29.1347 13.4513 30.2411 13.5194 30.997Z" fill="#E98862"/>
<path d="M17.9683 29.0858C17.1221 32.8713 16.3429 33.8833 14.381 33.1253C13.9311 32.9515 12.8534 31.8857 12.7455 29.6177C12.7013 28.8603 12.9365 28.113 13.4067 27.5167C13.877 26.9204 14.5497 26.5163 15.2981 26.3806C19.1837 25.8417 19.3199 29.3407 19.3199 29.3407C17.37 29.6741 14.714 29.1233 14.714 29.1233" fill="#0F1011"/>
<path d="M18.06 31.2244C18.0574 31.4231 17.9765 31.6128 17.8347 31.7524C17.6929 31.892 17.5017 31.9702 17.3025 31.9702C17.1033 31.9702 16.912 31.892 16.7703 31.7524C16.6285 31.6128 16.5476 31.4231 16.545 31.2244C16.5433 31.1247 16.5618 31.0257 16.5992 30.9333C16.6367 30.8409 16.6924 30.7569 16.7631 30.6864C16.8337 30.6159 16.9179 30.5603 17.0106 30.5229C17.1032 30.4856 17.2025 30.4672 17.3024 30.4689C17.8419 30.4953 18.06 30.8071 18.06 31.2244Z" fill="#E98862"/>
<path d="M21.9865 84.67L19.415 84.365C19.5307 83.3943 19.6617 82.2282 19.6705 82.0371C19.6705 82.0494 19.6705 82.0595 19.6705 82.0672H22.2602C22.2592 82.1445 22.2592 82.3802 21.9865 84.67Z" fill="#E98862"/>
<path d="M11.6678 84.9794L9.07812 84.9709C9.07812 84.9709 9.08676 82.3039 9.08676 82.0684H11.6764C11.6764 82.3049 11.6678 84.9794 11.6678 84.9794Z" fill="#E98862"/>
<path d="M22.9418 83.7762C22.7275 78.3636 22.7145 72.6788 22.6474 67.2519C21.7568 61.3985 21.2886 54.9785 20.1893 49.1666L20.1563 49.1763L20.0599 48.5208L10.6788 47.9434C10.6788 47.9434 10.4341 52.528 10.3488 54.0559C9.89154 62.2454 8.96346 75.4084 8.41113 83.7069L12.9577 84.09C13.7696 75.9286 14.8471 62.9269 15.5808 54.8828C16.386 58.9817 17.392 63.5974 18.1069 67.7448C18.2634 73.0429 18.3943 78.5641 18.3801 83.8535L22.9418 83.7762Z" fill="#262626"/>
<path d="M14.8157 85.9777C14.8853 85.9773 14.9541 85.9627 15.0178 85.9346C15.0815 85.9066 15.1388 85.8658 15.1859 85.8147C15.2331 85.7636 15.2692 85.7033 15.292 85.6377C15.3147 85.5721 15.3237 85.5024 15.3183 85.4332C15.3108 85.3372 15.276 85.2454 15.2179 85.1685C15.1598 85.0916 15.0809 85.0328 14.9904 84.9992L11.9763 83.9923C11.9179 83.973 11.8561 83.9665 11.7949 83.9733C11.7338 83.9801 11.6749 83.9999 11.6222 84.0315C11.2078 84.3183 10.7121 84.4648 10.208 84.4497C9.81533 84.4218 9.43842 84.2845 9.12021 84.0534C9.09226 84.0305 9.05835 84.016 9.02245 84.0116C8.98655 84.0072 8.95013 84.0131 8.91746 84.0286C8.88479 84.0441 8.8572 84.0685 8.83792 84.099C8.81865 84.1296 8.80848 84.1649 8.80859 84.201V85.6709C8.80858 85.7143 8.81715 85.7573 8.83383 85.7973C8.8505 85.8374 8.87495 85.8737 8.90576 85.9043C8.93658 85.935 8.97315 85.9592 9.01338 85.9757C9.05361 85.9921 9.0967 86.0005 9.14019 86.0003L14.8157 85.9777Z" fill="#C1D8ED"/>
<path d="M25.1418 85.9777C25.2115 85.9773 25.2803 85.9627 25.344 85.9346C25.4077 85.9066 25.465 85.8658 25.5121 85.8147C25.5593 85.7636 25.5954 85.7033 25.6182 85.6377C25.641 85.5721 25.65 85.5024 25.6446 85.4332C25.6371 85.3372 25.6022 85.2454 25.5441 85.1685C25.486 85.0916 25.4071 85.0329 25.3167 84.9992L22.3025 83.9923C22.2441 83.973 22.1822 83.9665 22.1211 83.9733C22.06 83.9801 22.0011 83.9999 21.9483 84.0315C21.534 84.3183 21.0383 84.4649 20.5342 84.4497C20.1415 84.4218 19.7647 84.2845 19.4465 84.0534C19.4185 84.0305 19.3846 84.016 19.3487 84.0117C19.3128 84.0073 19.2764 84.0132 19.2437 84.0286C19.2111 84.0441 19.1835 84.0685 19.1642 84.099C19.1449 84.1296 19.1347 84.1649 19.1348 84.201V85.6709C19.1347 85.7143 19.1433 85.7572 19.16 85.7973C19.1767 85.8374 19.2011 85.8737 19.2319 85.9043C19.2627 85.9349 19.2993 85.9592 19.3395 85.9756C19.3798 85.9921 19.4229 86.0005 19.4664 86.0003L25.1418 85.9777Z" fill="#C1D8ED"/>
<path d="M24.6579 39.3032L24.7153 39.3278L23.998 39.4433L24.7022 40.7839C24.7022 40.7839 27.3131 41.3933 28.5347 40.0225C28.5658 39.9876 28.5856 39.9441 28.5915 39.8978C28.5974 39.8514 28.5892 39.8044 28.5678 39.7628C28.5465 39.7212 28.5131 39.687 28.472 39.6647C28.4309 39.6423 28.384 39.6329 28.3374 39.6375C27.6334 39.7087 26.3778 39.7936 25.8124 39.5711C26.061 39.4494 26.3909 39.2629 26.3391 39.1515C26.2027 38.8586 25.0205 39.2448 24.6579 39.3032Z" fill="#E98862"/>
<path d="M22.2637 40.0527L22.4955 40.1966H22.2637V40.0527Z" fill="#FD5D76"/>
<path d="M53.8214 16.4785V40.1968H23.5314L22.2637 38.5573V16.4785H53.8214Z" fill="#0CBC8B"/>
<path d="M26.0889 33.0502L31.6536 28.2207L37.9594 33.0502H26.0889Z" fill="white"/>
<path d="M32.6416 33.0499L42.5419 25.959L49.9964 33.0499H32.6416Z" fill="white"/>
<path d="M35.8672 26.0813C36.5467 26.0813 37.0976 25.5319 37.0976 24.8541C37.0976 24.1764 36.5467 23.627 35.8672 23.627C35.1876 23.627 34.6367 24.1764 34.6367 24.8541C34.6367 25.5319 35.1876 26.0813 35.8672 26.0813Z" fill="white"/>
<path d="M32.3963 39.3032L32.4537 39.3278L31.7363 39.4433L32.4405 40.7839C32.4405 40.7839 35.0514 41.3933 36.2731 40.0225C36.3042 39.9876 36.324 39.9441 36.3299 39.8978C36.3358 39.8514 36.3276 39.8044 36.3063 39.7628C36.2849 39.7212 36.2515 39.687 36.2104 39.6647C36.1693 39.6423 36.1224 39.6329 36.0758 39.6375C35.3717 39.7087 34.1162 39.7936 33.5508 39.5711C33.7994 39.4494 34.1293 39.2629 34.0775 39.1515C33.9411 38.8586 32.7591 39.2448 32.3963 39.3032Z" fill="#E98862"/>
<path d="M32.0227 38.9983L25.4925 41.1072L25.0341 40.1971H23.5314L20.2635 35.9724C19.8936 35.2556 19.1944 34.7905 17.9531 34.7375C17.4581 34.7163 15.0421 34.7129 13.2734 34.7129C12.085 34.7129 11.1094 35.0764 10.5461 35.6384C8.60379 37.5756 10.9878 40.8766 10.9878 43.4604C10.9878 46.0443 9.81635 47.2015 9.90267 48.5275C10.0383 50.6116 20.1906 50.1191 20.708 48.9353C21.1835 47.8456 20.3736 47.1274 20.2279 44.1456L22.3619 43.0763L22.9361 43.8175C23.1054 44.0363 23.3382 44.1976 23.6029 44.2793C23.8676 44.3611 24.1511 44.3593 24.4147 44.2741L32.8507 41.5496L32.0227 38.9983ZM20.3495 41.0822C20.3697 40.9067 20.3905 40.7309 20.412 40.5548L20.6883 40.9122L20.3495 41.0822Z" fill="#367CFF"/>
<path d="M14.3598 29.4661C14.3598 29.4661 14.2049 27.97 12.8868 27.97C11.3216 27.97 12.3903 32.2596 13.0752 34.8826C13.1483 35.1631 13.1611 35.4558 13.113 35.7416C13.0649 36.0274 12.9569 36.2998 12.7961 36.5412C12.6352 36.7825 12.4251 36.9873 12.1795 37.1422C11.9339 37.297 11.6583 37.3985 11.3708 37.4399C11.0936 37.4801 10.8111 37.4637 10.5404 37.3916C10.2698 37.3196 10.0167 37.1934 9.79642 37.0208C9.57619 36.8482 9.39344 36.6327 9.25929 36.3874C9.12514 36.1422 9.04238 35.8723 9.01604 35.5942C8.69925 32.2307 8.77299 26.0247 12.3209 26.1443C14.626 26.2219 14.626 28.5136 14.626 28.5136L14.3598 29.4661Z" fill="#0F1011"/>
<path d="M13.8173 28.8103C13.7449 28.8104 13.6747 28.785 13.6192 28.7386C13.5637 28.6923 13.5263 28.6279 13.5136 28.5568C13.5009 28.4856 13.5137 28.4123 13.5498 28.3497C13.5858 28.2871 13.6429 28.2391 13.7109 28.2142C13.8116 28.186 13.9057 28.1381 13.9876 28.0732C14.0695 28.0082 14.1376 27.9277 14.1879 27.8361C14.2502 27.6778 14.2539 27.5025 14.1985 27.3416C14.1694 27.2661 14.1713 27.1821 14.2038 27.108C14.2364 27.0338 14.2969 26.9755 14.3724 26.9456C14.4478 26.9157 14.532 26.9166 14.6067 26.9483C14.6814 26.9799 14.7406 27.0396 14.7714 27.1144C14.8886 27.4271 14.8822 27.7726 14.7536 28.0808C14.6718 28.2498 14.5558 28.4001 14.413 28.5224C14.2702 28.6446 14.1036 28.7362 13.9237 28.7913C13.8897 28.8039 13.8536 28.8103 13.8173 28.8103Z" fill="#262626"/>
<path d="M123.728 85.5595C126.227 85.0158 128.672 84.2351 131.06 81.6683C131.55 81.1424 132.027 80.4558 131.843 79.7604C131.705 79.2371 131.206 78.8668 130.678 78.7377C130.482 78.6918 130.28 78.669 130.078 78.6697C130.077 78.6697 130.076 78.6697 130.076 78.6697C129.764 78.6749 129.454 78.7084 129.149 78.77L129.062 78.7868C127.608 79.0678 126.203 79.5612 124.893 80.2511C124.774 80.3132 124.638 80.3334 124.506 80.3083C124.375 80.2833 124.255 80.2146 124.168 80.1133C124.081 80.0121 124.03 79.8842 124.025 79.7507C124.019 79.6172 124.06 79.4857 124.139 79.3779C124.283 79.1825 124.447 79.0022 124.628 78.8398C124.895 78.6057 125.183 78.3969 125.488 78.2163C125.895 77.9703 126.324 77.7574 126.746 77.5371C128.312 76.7211 129.81 75.7813 131.226 74.7266C132.237 73.9731 133.234 73.1262 133.781 71.9918C134.032 71.4701 134.179 70.8565 133.98 70.3131C133.65 69.4203 132.528 69.0824 131.578 69.1805C129.913 69.3526 128.502 70.4384 127.239 71.5325C126.191 72.4417 125.019 73.4475 123.631 73.3896C123.394 73.3914 123.161 73.3237 122.961 73.1949C122.587 72.923 122.534 72.3624 122.712 71.9363C122.89 71.5101 123.245 71.1877 123.588 70.8786C125.581 69.0829 127.552 67.2053 128.942 64.9146C130.333 62.624 131.1 59.8444 130.496 57.2341C130.319 56.4716 130.018 55.7175 129.499 55.1296C128.979 54.5417 128.215 54.1355 127.429 54.1722C126.359 54.2207 125.486 55.0434 124.87 55.9168C122.755 58.9149 122.535 62.7911 121.705 66.3616C121.473 67.3611 121.172 68.3809 120.497 69.1623C120.434 69.2376 120.356 69.2986 120.268 69.3413C119.746 69.5859 119.349 68.9686 119.205 68.4611C118.635 66.4534 118.642 64.2138 117.46 62.4914C117.01 61.8357 116.341 61.2625 115.546 61.2C114.576 61.1236 113.676 61.8606 113.313 62.762C112.95 63.6633 113.033 64.6829 113.257 65.6276C113.673 67.3798 114.551 68.9967 115.624 70.4443C116.19 71.2084 116.836 71.9869 116.945 72.9299C116.975 73.2498 116.923 73.5721 116.794 73.8664C116.664 74.1606 116.462 74.417 116.205 74.6111C116.085 74.6984 115.949 74.7607 115.805 74.7945C115.66 74.8283 115.511 74.8329 115.364 74.8079C115.048 74.7516 114.774 74.565 114.51 74.3837C114.399 74.3076 114.288 74.2305 114.176 74.1546C113.736 73.8517 113.295 73.5483 112.854 73.2445C111.732 72.4729 110.368 71.6656 109.09 72.1376C108.438 72.3791 107.978 72.9247 107.727 73.5745C107.503 74.1643 107.448 74.805 107.568 75.4243C107.826 76.7132 109.83 80.4101 110.703 81.3942C111.721 82.5434 115.181 87.4203 123.728 85.5595Z" fill="#8DDBE0"/>
</g>
<defs>
<clipPath id="clip0_2838_2">
<rect width="139" height="86" fill="white"/>
</clipPath>
</defs>
</svg>
