<svg width="147" height="91" viewBox="0 0 147 91" fill="none" xmlns="http://www.w3.org/2000/svg">
<g clip-path="url(#clip0_3616_3)">
<path d="M147 91.0008H0C1.61073 86.9014 4.58532 83.4245 8.77849 82.393C14.9126 80.8859 21.404 85.0294 27.5244 83.4716C31.0016 82.5875 33.7391 80.0099 36.6156 77.8706C47.4678 69.7965 62.3395 67.4102 75.1808 71.6838C81.8932 73.9164 88.0099 77.821 94.8862 79.4816C103.778 81.6288 113.076 79.8482 122.219 79.5547C131.124 79.2681 143.885 82.8895 147 91.0008Z" fill="#F3F5FD"/>
<path d="M87.4087 67.0664H68.8242V88.059H87.4087V67.0664Z" fill="#DEE8F5"/>
<path d="M123.348 0H32.8847C30.9038 0 29.2979 1.60252 29.2979 3.57933V73.7557C29.2979 75.7325 30.9038 77.3351 32.8847 77.3351H123.348C125.329 77.3351 126.935 75.7325 126.935 73.7557V3.57933C126.935 1.60252 125.329 0 123.348 0Z" fill="#DEE8F5"/>
<path d="M123.125 2.44141H33.1073C32.2315 2.44141 31.5215 3.14991 31.5215 4.02389V65.414C31.5215 66.288 32.2315 66.9965 33.1073 66.9965H123.125C124.001 66.9965 124.711 66.288 124.711 65.414V4.02389C124.711 3.14991 124.001 2.44141 123.125 2.44141Z" fill="white"/>
<path d="M93.2763 86.1777H62.9559C61.6217 86.1777 60.54 87.2571 60.54 88.5885C60.54 89.92 61.6217 90.9994 62.9559 90.9994H93.2763C94.6106 90.9994 95.6922 89.92 95.6922 88.5885C95.6922 87.2571 94.6106 86.1777 93.2763 86.1777Z" fill="#DEE8F5"/>
<path d="M97.4371 15.1309H58.7969V44.1869H97.4371V15.1309Z" fill="#DEE8F5"/>
<path d="M86.4473 50.3066H69.7861V54.5035H86.4473V50.3066Z" fill="#DEE8F5"/>
<path d="M78.6557 23.0898H77.5771V36.2273H78.6557V23.0898Z" fill="white"/>
<path d="M84.6994 29.1211H71.5342V30.1972H84.6994V29.1211Z" fill="white"/>
<path d="M14.3408 37.1516C14.3408 37.1516 15.3896 36.7021 15.3896 33.9526L17.4977 33.7383C17.4977 33.7383 17.0632 36.1677 18.0498 37.0308L14.3408 37.1516Z" fill="#E98862"/>
<path d="M14.2981 32.7976C14.3739 33.6381 14.7625 34.4597 15.473 34.7873C16.2454 35.1689 17.0996 35.356 17.9612 35.3325C20.2496 35.3325 20.2238 30.1376 19.2268 29.0468C18.2298 27.9559 15.0103 28.3319 14.4874 29.9761C14.2169 30.8271 14.2261 31.9978 14.2981 32.7976Z" fill="#E98862"/>
<path d="M19.0026 30.7756C18.1077 34.7813 17.2836 35.8521 15.2089 35.05C14.733 34.8661 13.5933 33.7384 13.4792 31.3385C13.4325 30.5371 13.6812 29.7463 14.1785 29.1154C14.6758 28.4844 15.3873 28.0568 16.1787 27.9132C20.2879 27.343 20.432 31.0454 20.432 31.0454C18.3698 31.3982 15.561 30.8153 15.561 30.8153" fill="#0F1011"/>
<path d="M19.0993 33.0378C19.0966 33.2481 19.011 33.4488 18.8611 33.5965C18.7112 33.7442 18.5089 33.8271 18.2982 33.8271C18.0875 33.8271 17.8853 33.7442 17.7354 33.5965C17.5855 33.4488 17.4999 33.2481 17.4972 33.0378C17.4954 32.9324 17.5149 32.8276 17.5545 32.7298C17.5941 32.632 17.653 32.5432 17.7278 32.4686C17.8025 32.394 17.8915 32.3352 17.9895 32.2956C18.0875 32.2561 18.1925 32.2366 18.2982 32.2384C18.8687 32.2664 19.0993 32.5963 19.0993 33.0378Z" fill="#E98862"/>
<path d="M23.2527 89.5907L20.5332 89.268C20.6555 88.2408 20.794 87.0069 20.8034 86.8047C20.8034 86.8177 20.8034 86.8284 20.8034 86.8366H23.5421C23.541 86.9183 23.541 87.1678 23.2527 89.5907Z" fill="#E98862"/>
<path d="M12.3402 89.9181L9.60156 89.9092C9.60156 89.9092 9.61069 87.0871 9.61069 86.8379H12.3494C12.3494 87.0881 12.3402 89.9181 12.3402 89.9181Z" fill="#E98862"/>
<path d="M24.2625 88.6466C24.0358 82.9193 24.0221 76.9041 23.9512 71.1616C23.0093 64.9679 22.5141 58.1747 21.3515 52.0248L21.3167 52.0351L21.2147 51.3415L11.2937 50.7305C11.2937 50.7305 11.0349 55.5816 10.9447 57.1984C10.4611 65.864 9.47963 79.7924 8.89551 88.5733L13.7037 88.9787C14.5623 80.3427 15.7019 66.5851 16.4778 58.0734C17.3293 62.4105 18.3932 67.2946 19.1494 71.6832C19.3148 77.2893 19.4532 83.1314 19.4382 88.7284L24.2625 88.6466Z" fill="#262626"/>
<path d="M15.6692 90.9752C15.7429 90.9749 15.8156 90.9594 15.883 90.9297C15.9504 90.9 16.0109 90.8568 16.0608 90.8027C16.1107 90.7487 16.1488 90.6849 16.1729 90.6155C16.197 90.546 16.2065 90.4724 16.2008 90.3991C16.1929 90.2975 16.156 90.2003 16.0946 90.119C16.0331 90.0376 15.9497 89.9754 15.854 89.9398L12.6665 88.8744C12.6047 88.854 12.5393 88.8472 12.4746 88.8543C12.41 88.8615 12.3477 88.8825 12.2919 88.9159C11.8537 89.2193 11.3295 89.3744 10.7963 89.3584C10.3811 89.3289 9.98248 89.1836 9.64596 88.9391C9.6164 88.9148 9.58054 88.8995 9.54257 88.8949C9.5046 88.8902 9.46609 88.8965 9.43154 88.9128C9.39698 88.9292 9.36781 88.955 9.34742 88.9873C9.32704 89.0196 9.31628 89.0571 9.31641 89.0952V90.6506C9.31639 90.6965 9.32546 90.742 9.34309 90.7844C9.36073 90.8268 9.38658 90.8652 9.41917 90.8976C9.45175 90.93 9.49043 90.9557 9.53298 90.9731C9.57552 90.9905 9.6211 90.9994 9.66709 90.9992L15.6692 90.9752Z" fill="#C1D8ED"/>
<path d="M26.5891 90.9752C26.6628 90.9749 26.7356 90.9594 26.8029 90.9297C26.8703 90.9 26.9309 90.8568 26.9807 90.8027C27.0306 90.7487 27.0688 90.6849 27.0929 90.6155C27.117 90.546 27.1265 90.4724 27.1208 90.3991C27.1129 90.2975 27.076 90.2003 27.0146 90.119C26.9531 90.0376 26.8697 89.9755 26.7741 89.9398L23.5864 88.8744C23.5246 88.854 23.4592 88.8472 23.3946 88.8543C23.3299 88.8615 23.2676 88.8825 23.2118 88.9159C22.7736 89.2194 22.2494 89.3745 21.7163 89.3584C21.301 89.3289 20.9025 89.1836 20.566 88.9391C20.5364 88.9149 20.5006 88.8995 20.4626 88.8949C20.4246 88.8903 20.3861 88.8965 20.3516 88.9129C20.317 88.9292 20.2878 88.9551 20.2674 88.9874C20.247 89.0196 20.2362 89.0571 20.2363 89.0952V90.6506C20.2363 90.6965 20.2454 90.742 20.263 90.7844C20.2807 90.8267 20.3065 90.8652 20.3391 90.8976C20.3717 90.93 20.4104 90.9556 20.4529 90.9731C20.4954 90.9905 20.541 90.9994 20.587 90.9992L26.5891 90.9752Z" fill="#C1D8ED"/>
<path d="M26.0777 41.586L26.1384 41.612L25.3799 41.7342L26.1245 43.1527C26.1245 43.1527 28.8858 43.7975 30.1776 42.347C30.2105 42.31 30.2314 42.264 30.2377 42.215C30.2439 42.166 30.2352 42.1162 30.2127 42.0722C30.1902 42.0282 30.1548 41.9921 30.1114 41.9684C30.0679 41.9447 30.0183 41.9347 29.969 41.9397C29.2245 42.015 27.8966 42.1048 27.2986 41.8694C27.5616 41.7406 27.9104 41.5433 27.8556 41.4254C27.7114 41.1155 26.4611 41.5241 26.0777 41.586Z" fill="#E98862"/>
<path d="M23.5449 42.3809L23.7901 42.5331H23.5449V42.3809Z" fill="#FD5D76"/>
<path d="M56.9189 17.4355V42.5328H24.8856L23.5449 40.798V17.4355H56.9189Z" fill="#2C99F5"/>
<path d="M27.5908 34.9677L33.4758 29.8574L40.1445 34.9677H27.5908Z" fill="white"/>
<path d="M34.5205 34.968L44.9906 27.4648L52.8742 34.968H34.5205Z" fill="white"/>
<path d="M37.9321 27.5951C38.6508 27.5951 39.2334 27.0137 39.2334 26.2966C39.2334 25.5794 38.6508 24.998 37.9321 24.998C37.2135 24.998 36.6309 25.5794 36.6309 26.2966C36.6309 27.0137 37.2135 27.5951 37.9321 27.5951Z" fill="white"/>
<path d="M34.2605 41.586L34.3211 41.612L33.5625 41.7342L34.3072 43.1527C34.3072 43.1527 37.0684 43.7975 38.3604 42.347C38.3933 42.31 38.4142 42.264 38.4204 42.215C38.4267 42.166 38.418 42.1162 38.3954 42.0722C38.3729 42.0282 38.3376 41.9921 38.2941 41.9684C38.2506 41.9447 38.201 41.9347 38.1517 41.9397C37.4071 42.015 36.0793 42.1048 35.4814 41.8694C35.7443 41.7406 36.0932 41.5433 36.0384 41.4254C35.8942 41.1155 34.6441 41.5241 34.2605 41.586Z" fill="#E98862"/>
<path d="M33.866 41.265L26.96 43.4965L26.4753 42.5335H24.8861L21.4301 38.0632C21.0389 37.3048 20.2994 36.8126 18.9867 36.7565C18.4632 36.7341 15.9082 36.7305 14.0377 36.7305C12.7809 36.7305 11.7492 37.1152 11.1535 37.7098C9.09933 39.7596 11.6206 43.2525 11.6206 45.9866C11.6206 48.7206 10.3817 49.9451 10.473 51.3483C10.6164 53.5535 21.3531 53.0324 21.9001 51.7798C22.403 50.6267 21.5466 49.8668 21.3924 46.7116L23.6492 45.5801L24.2566 46.3644C24.4355 46.5959 24.6818 46.7666 24.9617 46.8531C25.2416 46.9396 25.5415 46.9377 25.8202 46.8476L34.7418 43.9646L33.866 41.265ZM21.521 43.4701C21.5424 43.2844 21.5645 43.0984 21.5871 42.912L21.8794 43.2902L21.521 43.4701Z" fill="#367CFF"/>
<path d="M15.1869 31.1788C15.1869 31.1788 15.0231 29.5958 13.6292 29.5958C11.9738 29.5958 13.1041 34.1348 13.8284 36.9102C13.9057 37.2071 13.9193 37.5168 13.8684 37.8192C13.8175 38.1216 13.7033 38.4099 13.5332 38.6653C13.3631 38.9206 13.1409 39.1373 12.8812 39.3012C12.6214 39.4651 12.33 39.5724 12.0259 39.6162C11.7327 39.6588 11.4339 39.6414 11.1477 39.5652C10.8615 39.489 10.5938 39.3555 10.3609 39.1728C10.128 38.9901 9.93474 38.7621 9.79287 38.5026C9.65099 38.2431 9.56347 37.9575 9.53562 37.6632C9.20059 34.1042 9.27857 27.5374 13.0307 27.6639C15.4685 27.746 15.4685 30.171 15.4685 30.171L15.1869 31.1788Z" fill="#0F1011"/>
<path d="M14.6134 30.4845C14.5368 30.4845 14.4626 30.4577 14.4039 30.4086C14.3451 30.3595 14.3056 30.2914 14.2922 30.2161C14.2787 30.1409 14.2923 30.0633 14.3304 29.997C14.3686 29.9308 14.4289 29.88 14.5008 29.8537C14.6074 29.8239 14.7069 29.7731 14.7935 29.7044C14.8801 29.6357 14.9521 29.5505 15.0053 29.4536C15.0712 29.2861 15.0751 29.1006 15.0165 28.9303C14.9857 28.8504 14.9877 28.7616 15.0222 28.6831C15.0566 28.6047 15.1206 28.5429 15.2004 28.5113C15.2801 28.4797 15.3692 28.4807 15.4482 28.5141C15.5272 28.5476 15.5898 28.6108 15.6224 28.69C15.7463 29.0209 15.7396 29.3864 15.6036 29.7125C15.517 29.8913 15.3944 30.0504 15.2434 30.1798C15.0924 30.3091 14.9162 30.406 14.7259 30.4643C14.6899 30.4776 14.6518 30.4844 14.6134 30.4845Z" fill="#262626"/>
<path d="M130.85 90.5349C133.492 89.9595 136.078 89.1334 138.603 86.4174C139.122 85.861 139.626 85.1344 139.432 84.3986C139.285 83.8448 138.758 83.453 138.199 83.3165C137.991 83.2679 137.778 83.2437 137.565 83.2445C137.563 83.2445 137.562 83.2445 137.562 83.2445C137.233 83.25 136.905 83.2855 136.583 83.3506L136.491 83.3684C134.952 83.6657 133.467 84.1878 132.081 84.9178C131.956 84.9835 131.812 85.0049 131.672 84.9784C131.533 84.9519 131.407 84.8792 131.315 84.772C131.222 84.6649 131.169 84.5296 131.163 84.3883C131.157 84.247 131.2 84.108 131.284 83.9939C131.436 83.7871 131.61 83.5963 131.801 83.4245C132.083 83.1768 132.387 82.9559 132.711 82.7647C133.141 82.5044 133.595 82.2792 134.041 82.0461C135.697 81.1826 137.281 80.1881 138.778 79.0721C139.848 78.2748 140.902 77.3787 141.481 76.1784C141.747 75.6263 141.902 74.9771 141.691 74.402C141.342 73.4573 140.155 73.0998 139.151 73.2036C137.39 73.3857 135.898 74.5346 134.562 75.6923C133.453 76.6544 132.215 77.7187 130.747 77.6574C130.495 77.6593 130.249 77.5877 130.038 77.4514C129.643 77.1637 129.586 76.5705 129.775 76.1196C129.963 75.6686 130.339 75.3275 130.702 75.0004C132.809 73.1004 134.893 71.1135 136.364 68.6897C137.834 66.2659 138.646 63.3247 138.007 60.5627C137.819 59.7558 137.501 58.9578 136.952 58.3358C136.403 57.7137 135.594 57.2838 134.764 57.3228C133.632 57.374 132.708 58.2445 132.057 59.1688C129.821 62.3412 129.588 66.4427 128.71 70.2208C128.464 71.2784 128.146 72.3575 127.432 73.1843C127.366 73.264 127.283 73.3286 127.19 73.3738C126.637 73.6326 126.218 72.9793 126.065 72.4424C125.463 70.318 125.47 67.9482 124.221 66.1256C123.744 65.4318 123.037 64.8252 122.196 64.7591C121.17 64.6783 120.218 65.4581 119.834 66.4119C119.451 67.3657 119.539 68.4445 119.776 69.4441C120.216 71.2982 121.144 73.0091 122.278 74.5409C122.877 75.3494 123.561 76.1732 123.676 77.171C123.708 77.5095 123.653 77.8506 123.516 78.1619C123.379 78.4733 123.165 78.7445 122.893 78.95C122.766 79.0423 122.622 79.1082 122.47 79.144C122.317 79.1798 122.159 79.1846 122.004 79.1582C121.67 79.0986 121.38 78.9012 121.101 78.7093C120.984 78.6288 120.866 78.5472 120.748 78.4669C120.282 78.1464 119.815 77.8254 119.349 77.5039C118.163 76.6874 116.72 75.8331 115.369 76.3326C114.679 76.5882 114.192 77.1655 113.928 77.853C113.69 78.4771 113.632 79.1551 113.759 79.8104C114.032 81.1743 116.151 85.0861 117.075 86.1273C118.151 87.3434 121.81 92.5039 130.85 90.5349Z" fill="#8DDBE0"/>
</g>
<defs>
<clipPath id="clip0_3616_3">
<rect width="147" height="91" fill="white"/>
</clipPath>
</defs>
</svg>
