<svg width="81" height="83" viewBox="0 0 81 83" fill="none" xmlns="http://www.w3.org/2000/svg">
<circle cx="40.5" cy="40.5" r="40.5" fill="white"/>
<path d="M40.5001 47.1456C43.4838 47.1456 46.3453 46.071 48.4551 44.1581C50.5649 42.2452 51.7501 39.6508 51.7501 36.9456C51.7501 34.2404 50.5649 31.646 48.4551 29.7331C46.3453 27.8202 43.4838 26.7456 40.5001 26.7456C37.5165 26.7456 34.655 27.8202 32.5452 29.7331C30.4354 31.646 29.2502 34.2404 29.2502 36.9456C29.2502 39.6508 30.4354 42.2452 32.5452 44.1581C34.655 46.071 37.5165 47.1456 40.5001 47.1456ZM15.9939 69.2252C15.6476 70.068 15.6101 70.9895 15.8871 71.853C16.164 72.7166 16.7407 73.4762 17.5314 74.0192C24.0988 78.6473 32.1823 81.1553 40.5001 81.1456C49.1626 81.1456 57.1427 78.48 63.4914 74.0056C65.1039 72.8734 65.7564 70.9354 65.0214 69.2116C63.1173 64.7169 59.7547 60.8513 55.3776 58.125C51.0004 55.3987 45.8143 53.9398 40.5038 53.9409C35.1933 53.942 30.0079 55.403 25.6321 58.1312C21.2563 60.8593 17.8957 64.7263 15.9939 69.2218" fill="#5589FE"/>
</svg>
